<svg width="570" height="420" version="1.1" viewBox="0 0 150.81 111.12" xmlns="http://www.w3.org/2000/svg">
 <g stroke-width=".26458">
  <path d="m10.162 62.445c-16.099-15.226-8.5672-45.014 10.848-55.695 8.4836-4.6669 15.292-7.0417 24.474-3.9688 12.771 4.2742 6.4609 22.328 17.859 29.501 19.621 12.347 25.268-4.7624 51.991-4.7624 31.32 0 40.854 25.288 29.369 53.71-11.197 27.71-43.259 28.178-63.632 16.272-14.657-8.5656-18.058-18.679-37.174-25.268-13.286-4.5792-23.524-.13282-33.734-9.7896z" fill="#705ea8" fill-opacity=".18"/>
  <path d="m32.907 109.79c-15.411 0-27.905-1.6211-27.905-3.6211 0-2 12.493-3.6214 27.905-3.6214 15.411 0 27.905 1.6214 27.905 3.6214 0 2-12.493 3.6211-27.905 3.6211z" fill="#2d244f"/>
  <path d="m33.498 45.569-1.306 1.9973-1.942-.40243 1.4658-2.4828z" fill="#9f5b53"/>
  <path d="m29.796 28.451c-.27675.33496-.50721.63288-.74374.95858-.23654.3257-.46408.63924-.68818.96494-.44873.64823-.87585 1.315-1.2753 2.0002-.39947.68527-.78663 1.3859-1.1246 2.1204-.18129.35957-.33494.74057-.50086 1.1123-.16595.37174-.30729.762-.42712 1.1644l-.09835.30744-.04916.15055c-.02765.0892-.0553.18442-.07374.27332-.0676.31908-.09035.64584-.0676.97102.04059.50959.15124 1.011.3288 1.4904.30078.79877.68604 1.5632 1.1492 2.2799.86299 1.3308 1.8641 2.567 2.9867 3.6875l1.3428-1.0509c-.73845-1.2602-1.4131-2.5564-2.0219-3.8841-.2794-.60616-.50271-1.2367-.66675-1.8836-.06115-.24289-.08906-.49318-.08289-.74374.000264-.0529.01177-.10531.03379-.15346l.04911-.11695.10134-.23336c.57547-1.2928 1.2536-2.5371 2.028-3.7211.38735-.61463.79587-1.2076 1.2078-1.8068.41169-.59928.86016-1.1983 1.2658-1.7423z" fill="#9f5b53"/>
  <path d="m30.554 26.939c-2.1172.48549-4.5447 6.2532-4.5447 6.2532l4.2372 2.9128c1.0581-1.5158 1.9971-3.1112 2.8086-4.772 1.2568-2.6395-.35031-4.8887-2.5011-4.394z" fill="#407bff"/>
  <path d="m30.554 26.939c-2.1172.48549-4.5447 6.2532-4.5447 6.2532l4.2372 2.9128c1.0581-1.5158 1.9971-3.1112 2.8086-4.772 1.2568-2.6395-.35031-4.8887-2.5011-4.394z" fill="#f3f3f3" opacity=".8"/>
  <path d="m32.06 30.617-2.0095 5.3499.19976.13811s.86968-1.229 1.8098-2.8668z" fill="#407bff"/>
  <path d="m32.06 30.617-2.0095 5.3499.19976.13811s.86968-1.229 1.8098-2.8668z" fill="#fff" opacity=".6"/>
  <path d="m37.425 103.99h2.2585l.22437-5.2266h-2.2585z" fill="#9f5b53"/>
  <path d="m23.871 103.99h2.2585l1.1338-5.2266h-2.2554z" fill="#9f5b53"/>
  <path d="m39.908 98.762-.11668 2.6919h-2.2585l.11668-2.6919z" fill="#8a4743"/>
  <path d="m25.005 98.762h2.2585l-.58383 2.6919h-2.2585z" fill="#8a4743"/>
  <path d="m39.041 46.568s-2.5628 17.251-3.9669 23.713c-1.5364 7.0673-7.344 30.654-7.344 30.654h-4.1359s3.8287-23.006 4.7074-30.024c.95276-7.6049 2.9469-24.355 2.9469-24.355z" fill="#8e29a3"/>
  <path d="m39.041 46.568s-2.5628 17.251-3.9669 23.713c-1.5364 7.0673-7.344 30.654-7.344 30.654h-4.1359s3.8287-23.006 4.7074-30.024c.95276-7.6049 2.9469-24.355 2.9469-24.355z" fill="#621c71" opacity=".5"/>
  <path d="m37.422 52.714c-2.962.58076-2.6485 11.627-2.2921 17.309.85408-4.0161 2.1048-11.744 2.9591-17.229-.20664-.10187-.44212-.13018-.66702-.0799z" opacity=".4"/>
  <path d="m43.325 46.568s.30718 16.876.06456 23.762c-.25506 7.1596-2.7654 30.605-2.7654 30.605h-3.8227s-.14129-23.027-.30718-30.058c-.18442-7.6666-1.1094-24.309-1.1094-24.309z" fill="#8e29a3"/>
  <path d="m43.325 46.568s.30718 16.876.06456 23.762c-.25506 7.1596-2.7654 30.605-2.7654 30.605h-3.8227s-.14129-23.027-.30718-30.058c-.18442-7.6666-1.1094-24.309-1.1094-24.309z" fill="#621c71" opacity=".5"/>
  <path d="m30.066 44.398 1.6502.28284-1.4658 2.4826s-1.1491-.55298-1.3581-1.6253z" fill="#9f5b53"/>
  <path d="m40.971 18.55c0 .1813.09525.32878.21511.32878.11986 0 .21511-.14748.21511-.32878 0-.18129-.09525-.32879-.21511-.32879-.11986 0-.21511.14443-.21511.32879z" fill="#263238"/>
  <path d="m41.051 18.879c.21749.5565.51012 1.0807.86969 1.5579-.12435.0889-.2667.14956-.41672.17769-.15028.0281-.3048.0231-.45297-.0148z" fill="#892b29"/>
  <path d="m40.326 17.543c.02249.00027.04418-.007.06138-.0215.10689-.0821.23178-.13753.36433-.16158.13256-.0241.26908-.0161.39793.0233.0127.005.02646.007.04022.007.01402-.00042.02752-.004.04022-.009.01243-.006.02381-.0139.03307-.024.0095-.0101.01667-.022.0217-.0349.0053-.0129.0082-.0267.0082-.0408 0-.014-.0026-.0279-.0082-.0408s-.01349-.0246-.02355-.0343c-.01006-.01-.02196-.0174-.03493-.0224-.16192-.0522-.3339-.0644-.50139-.0355s-.32544.098-.46038.20138c-.01191.008-.02196.0177-.02963.0295-.0077.0117-.01296.025-.01508.0389-.0024.0139-.0019.0281.0016.0417.0034.0136.0098.0264.01852.0375.009.0145.0217.0264.03678.0345.01508.008.03202.0121.04921.0116z" fill="#263238"/>
  <path d="m35.093 20.649c.3257 1.6532.64849 4.6768-.50694 5.7799 0 0 .45164 1.6748 3.5213 1.6748 3.3801 0 1.6103-1.6748 1.6103-1.6748-1.8436-.43942-1.7947-1.8068-1.4719-3.0881z" fill="#9f5b53"/>
  <path d="m34.144 27.004c-.24289-.52853-.50721-1.1369.04286-1.3274.61463-.20895 3.924-.42098 5.067-.0307.15081.0418.29184.11308.41487.20973.12303.0966.22569.21677.30189.35338.07646.1366.12488.28699.14261.44246.01773.15544.0045.3129-.03889.46321z" fill="#8d3b82"/>
  <path d="m27.036 104.1c.09541.0127.19243.006.2853-.0191.09287-.0254.17976-.0691.25551-.12858.0272-.0368.04188-.0815.04188-.12753 0-.0458-.01468-.0905-.04188-.12753-.01691-.0318-.04051-.0593-.06916-.081-.02863-.022-.06165-.037-.09676-.045-.33187-.0736-.95258.3503-.98023.36882-.0085.006-.01497.0148-.01879.0246-.0038.01-.0048.0204-.0027.0307.0017.0101.0065.019.01368.0262.0071.007.01633.0119.02627.0138.19291.0415.38957.0632.5869.0646zm.27961-.43021h.0676c.02082.004.0404.0132.05741.0259.01699.0127.03096.0291.04093.0479.04916.086.01844.12277 0 .1352-.09525.12885-.55618.12885-.89419.0736.2191-.14526.46792-.23972.72824-.27649z" fill="#d690d8"/>
  <path d="m26.458 104.04h.02458c.23355-.12912.68524-.61463.63915-.8726-.0079-.04-.02929-.0759-.0607-.1016-.03138-.0259-.07078-.0399-.11139-.0399-.04048-.004-.08144-.00053-.12049.0111-.03903.0116-.07535.0307-.10689.0566-.2612.21511-.30729.86651-.30729.89403-.0012.01.000423.0196.0048.0286.0044.009.01127.0159.01979.0206.0058.002.01214.003.01844.003zm.45477-.92181h.02461c.07067 0 .07681.0429.07988.0553.02765.15055-.26117.52229-.49165.69745.01609-.25665.10808-.50245.26427-.70671.0353-.0267.07861-.0407.1229-.04z" fill="#d690d8"/>
  <path d="m40.59 104.1c.28892 0 .56832-.04.66384-.16907.02355-.0344.03625-.0751.03625-.11668 0-.0418-.0127-.0825-.03625-.11694-.01773-.0318-.04207-.0593-.07117-.081s-.06244-.037-.0979-.045c-.372-.10134-1.1647.34739-1.1986.36565-.009.006-.01614.0143-.02037.0241-.0045.01-.0058.0206-.004.0312.0011.0111.0061.0212.01402.0291.0077.008.01799.0127.02884.014.22596.0426.45535.0643.68527.0646zm.35957-.43629c.0336-.005.06773-.005.10134 0 .0217.004.04207.013.06006.0257s.03307.0291.04445.0479c.03678.0677.02461.0984 0 .11695-.10451.14128-.6731.15054-1.097.0921.27622-.14922.57891-.24315.89112-.27649z" fill="#d690d8"/>
  <path d="m39.908 104.04h.02143c.27331-.11986.81121-.61463.77126-.8636 0-.0614-.05239-.13521-.19976-.15055-.05477-.008-.11086-.005-.16404.0116-.05318.0159-.10213.0434-.14314.0804-.28892.23363-.3474.84217-.35031.86969-.0013.009 0 .019.004.0275.0037.009.0098.0161.01746.0217.0066.003.01376.006.02117.006.0074.00052.01482-.00053.02196-.003zm.5498-.92208h.03387c.09525 0 .10134.0492.10451.0617.02461.15346-.34422.53763-.61463.70353.02672-.25797.13414-.50112.30744-.69427.0471-.0408.10689-.0635.1688-.0646z" fill="#d690d8"/>
  <path d="m26.289 103.72h-2.535c-.04524.00053-.08906.0161-.12422.0444-.03516.0286-.05964.0683-.06937.11245l-.44553 2.0063c-.01019.0489-.0092.0995.0028.1479.01206.0484.03487.0934.06678.13203.03188.0384.07205.0691.11745.0897.0454.0206.09488.0309.14478.0299.88495-.0153 1.3151-.0675 2.4306-.0675.68522 0 2.0987.0736 3.0483.0736.94932 0 1.0692-.92181.6821-1.0232-1.7394-.381-2.3938-.90646-2.953-1.4041-.09959-.0918-.23027-.14234-.36565-.14155z" fill="#263238"/>
  <path d="m39.668 103.72h-2.4582c-.04524.00053-.0889.0161-.12409.0444-.03519.0286-.0598.0683-.06959.11245l-.44556 2.0063c-.01058.0484-.01005.0987.0013.14685.01164.0481.03387.0934.06509.13176.03122.0384.07091.0693.11589.0902.04498.0209.09393.0315.14367.0307.88794-.0153 2.1722-.0675 3.2909-.0675 1.3057 0 2.4365.0736 3.9698.0736.92207 0 1.1832-.92181.79587-1.0232-1.7666-.38708-3.2078-.42703-4.735-1.3674-.16272-.1106-.35348-.17251-.55007-.17833z" fill="#263238"/>
  <path d="m42.891 31.557c.89429 1.3213 1.8193 2.5535 2.8178 3.7764.99748 1.2356 2.0645 2.4133 3.1956 3.5274l.44265.41804.11351.10452.07699.0706.11351.0982c.14605.11509.30136.21801.46408.30744.51885.27279 1.0896.43207 1.6748.46699.8927.0556 1.7891-.018 2.6609-.21828 1.5798-.34978 3.1118-.88821 4.563-1.6039l-.56224-1.5978c-1.4401.28654-2.8961.48445-4.3603.59319-.64294.0521-1.2901.0254-1.9267-.0799-.18256-.0265-.35692-.0937-.50985-.19685v-.0214l-.0217-.0246-.09208-.10133-.36274-.39952c-.96176-1.097-1.8928-2.2617-2.7961-3.4568-.90329-1.1954-1.8068-2.4122-2.6702-3.6076z" fill="#9f5b53"/>
  <path d="m41.85 31.911c.31406 1.9063 1.138 3.6923 2.3844 5.1684.04921-1.0816.06747-2.0526.06456-2.9223z" fill="#bed3fc"/>
  <path d="m34.899 18.163c.1352 2.237.10134 3.5521 1.229 4.7014 1.6992 1.7269 4.4585.7006 4.9932-1.5364.47942-2.0096.17515-5.3282-2.0156-6.2193-.48207-.19802-1.0065-.26948-1.5237-.2076-.51726.0619-1.0102.25506-1.4319.56116-.42148.3061-.75777.71493-.97684 1.1877-.21881.47273-.31327.99359-.27411 1.5131z" fill="#9f5b53"/>
  <path d="m39.244 16.676c-.01826 2.6303-.8726 5.8567-3.4168 5.6324-1.6902-.14748-2.9744-3.2295-3.1496-4.5354-.26723-1.9973-.30718-2.3783.8173-2.6088-.4916-.26733-.66992-1.5364.47942-1.8437 1.5978-.42097 4.609-.83272 3.6626-1.8068 1.8867.34107 2.3601 1.097 2.0159 2.0157 1.103-.086 1.7822-.66371 1.7484-1.5364 1.8283.74055 3.0144 4.9287-2.1571 4.6829z" fill="#263238"/>
  <path d="m37.929 18.815c.12462.54245.42492 1.0285.85408 1.3827.56859.46093 1.0234.0492 1.011-.61455 0-.59917-.3257-1.561-.96494-1.7638-.63897-.20281-1.057.34107-.90011.99557z" fill="#9f5b53"/>
  <path d="m31.784 15.622c.30057-.19151.64426-.30525.99986-.33099.3556-.0257.71199.0373 1.0372.18351 0 0-1.2782-1.7177-2.037.14748z" fill="#263238"/>
  <path d="m28.404 99.41c.01826 0-.4273 1.5886-.4273 1.5886h-4.6521l.08604-1.4166z" fill="#d690d8"/>
  <path d="m41.367 99.41c.01852 0-.21511 1.5886-.21511 1.5886h-4.6522l-.12594-1.4166z" fill="#d690d8"/>
  <path d="m39.837 98.187c.0093 0 .01799-.003.02487-.01.0069-.006.01111-.0148.01191-.0241.67601-6.4897 2.2646-22.192 2.4582-27.824.20584-5.7494.01852-18.649-.04313-22.465 0-.0214-.01826-.0336-.03995-.0368-.0095 8e-4-.01852.005-.02513.0116-.0069.007-.01085.0156-.01164.0251.06138 3.8166.24897 16.716.04313 22.462-.19976 5.6324-1.7886 21.328-2.4582 27.818-.000265.0103.0034.0206.01032.0283.0066.008.01614.0132.02646.0148z" fill="#861b77"/>
  <path d="m39.837 98.187c.0093 0 .01799-.003.02487-.01.0069-.006.01111-.0148.01191-.0241.67601-6.4897 2.2646-22.192 2.4582-27.824.20584-5.7494.01852-18.649-.04313-22.465 0-.0214-.01826-.0336-.03995-.0368-.0095 8e-4-.01852.005-.02513.0116-.0069.007-.01085.0156-.01164.0251.06138 3.8166.24897 16.716.04313 22.462-.19976 5.6324-1.7886 21.328-2.4582 27.818-.000265.0103.0034.0206.01032.0283.0066.008.01614.0132.02646.0148z" opacity=".3"/>
  <path d="m40.808 28.884c-.30718 2.1511 3.9148 7.5991 3.9148 7.5991l4.2312-2.9131s-1.1737-3.0083-3.1496-4.981c-2.2553-2.2338-4.6704-2.031-4.9964.29501z" fill="#407bff"/>
  <path d="m40.808 28.884c-.30718 2.1511 3.9148 7.5991 3.9148 7.5991l4.2312-2.9131s-1.1737-3.0083-3.1496-4.981c-2.2553-2.2338-4.6704-2.031-4.9964.29501z" fill="#f3f3f3" opacity=".8"/>
  <path d="m43.19 27.056s2.4029 2.7132.1352 19.512h-12.076c-.08308-1.8436 1.0816-10.896-.70379-19.629 1.3346-.25696 2.6842-.42735 4.0407-.51006 1.7092-.0984 3.4224-.0984 5.1316 0 1.1718.11808 2.3328.32766 3.4721.62683z" fill="#407bff"/>
  <path d="m43.19 27.056s2.4029 2.7132.1352 19.512h-12.076c-.08308-1.8436 1.0816-10.896-.70379-19.629 1.3346-.25696 2.6842-.42735 4.0407-.51006 1.7092-.0984 3.4224-.0984 5.1316 0 1.1718.11808 2.3328.32766 3.4721.62683z" fill="#f3f3f3" opacity=".8"/>
  <path d="m59.587 36.427 1.4192-1.9156 2.0484 2.0309s-1.166 1.4608-2.8019 1.2972z" fill="#861b77"/>
  <path d="m63.142 33.283 1.0602 2.2722-1.1472.98716-2.0484-2.0309z" fill="#861b77"/>
  <path d="m85.521 30.478c-.18865-.38576-.45879-.72601-.79137-.99747-.33284-.2712-.72046-.46752-1.1361-.57494s-.84984-.12356-1.2724-.0474c-.42254.0762-.82365.24315-1.1755.48895l1.7034-1.1901c.63183-.43077 1.0784-1.0836 1.2504-1.8287.17224-.74504.0577-1.5276-.32121-2.1919-.21087-.34872-.4908-.65055-.82285-.88677-.33205-.23625-.70909-.4019-1.1076-.48673-.39846-.0848-.81042-.087-1.2097-.006-.39952.0806-.77814.24223-1.1128.47493l1.7039-1.1873c.63261-.43082 1.0795-1.0843 1.2517-1.83.17198-.74576.0569-1.529-.32279-2.1936-.21088-.35203-.49239-.65669-.82656-.89485-.33417-.23815-.71411-.40465-1.1155-.48905-.40164-.0844-.81651-.0849-1.2182-.001-.4019.0835-.7821.24913-1.1168.48654l8.0846-5.6779c.5969-.40299 1.0306-1.0053 1.2234-1.699.19315-.69373.13256-1.4335-.17039-2.0867-.18944-.38534-.45985-.72522-.79296-.99632-.33311-.27109-.72072-.46702-1.1366-.57433-.41566-.10734-.84984-.12356-1.2724-.04757-.4228.07601-.82391.24246-1.1763.48794l-17.027 11.954.86678-7.9481c.0833-.79801-.13917-1.5979-.62257-2.2383-.48366-.64034-1.1919-1.0734-1.9823-1.2117-.79058-.1383-1.6039.02847-2.2759.46662-.67231.43815-1.1531 1.115-1.3457 1.8939l-3.9534 16.361c-.33893 1.3985-1.1748 2.6261-2.3516 3.454l-.97367.68236c-.14896.10451-.27622.23759-.37386.39132-.09763.15372-.16404.32517-.19526.50456-.03096.17965-.02646.36353.01349.54107.04022.1778.11509.34581.22013.49451l9.144 13.01c.21167.30056.53393.50509.89588.56832.36221.0635.73475-.019 1.0358-.22992l2.3895-1.6769c.90646-.626 1.9656-.99404 3.0649-1.065 2.654-.19843 5.2052-1.1112 7.3827-2.6419l7.9457-5.579c.59055-.40719 1.0176-1.0107 1.2046-1.7034.18733-.69242.12277-1.429-.18203-2.0783z" fill="#861b77"/>
  <path d="m63.143 45.915c.29474-.0384.576-.14764.81968-.3183l2.3895-1.6769c.83846-.57811 1.8169-.92048 2.8329-.99139 2.7368-.20373 5.3676-1.1443 7.6139-2.7215l7.9457-5.579c.68157-.4699 1.1748-1.166 1.3917-1.9651s.14367-1.6489-.20691-2.399c-.21775-.44635-.53022-.83978-.91546-1.1533-.38496-.31326-.83396-.53922-1.3152-.66145-.1307-.0352-.26352-.0611-.39767-.0781.65643-.52039 1.1038-1.2592 1.261-2.0819.15716-.82267.0135-1.6744-.40455-2.4001-.24051-.40589-.56356-.75692-.948-1.0305-.38418-.27356-.8218-.46363-1.284-.55793-.086-.0166-.17171-.0333-.25664-.0438.65669-.51999 1.1046-1.2589 1.2618-2.0817.15716-.82285.0132-1.6748-.40561-2.4003-.24077-.40526-.56383-.75567-.948-1.0287-.38444-.27303-.82153-.46263-1.2835-.55666-.0799-.0174-.16219-.0314-.2413-.0428l6.1751-4.3366c.68157-.46974 1.1748-1.1659 1.3917-1.9649.21696-.79896.14367-1.649-.2069-2.399-.21881-.4449-.53129-.83727-.91572-1.1502-.38471-.31298-.83212-.53917-1.3123-.66307-.47995-.12393-.98134-.14266-1.4692-.05493-.48789.08776-.95118.2799-1.3581.5633l-16.2 11.385.76041-6.9394c.0945-.9138-.16139-1.8294-.71622-2.5618-.55457-.73234-1.3666-1.2269-2.2717-1.3836-.90514-.15674-1.8362.03596-2.6048.53914-.76862.50321-1.3176 1.2794-1.5359 2.1718l-3.9534 16.361c-.31247 1.29-1.0837 2.4222-2.1698 3.1853l-.97049.6821c-.1987.13917-.36804.31591-.49821.5207s-.21881.43312-.26062.67204c-.0418.23892-.03598.48392.01693.72046.05318.2368.1524.46091.2921.65908l9.1443 13.013c.19632.27278.46328.48683.77232.61886.30903.13202.64823.17727.98108.13044zm5.5774-3.8584c-1.0411.1307-2.0354.51091-2.898 1.1083l-2.3894 1.6769c-.09922.0706-.21167.12091-.33046.1479-.1188.027-.24183.0299-.36168.009-.12012-.0209-.23468-.0653-.33761-.13097-.10266-.0654-.19156-.15055-.26114-.25056l-9.1443-13.013c-.07011-.0995-.11959-.21167-.14605-.33047-.02672-.11853-.02937-.2413-.0082-.36115.02117-.1196.06588-.2339.1315-.33629.06535-.10239.15055-.19103.25056-.26035l.97049-.68183c1.265-.89059 2.1627-2.2113 2.5249-3.7154l3.9563-16.361c.1569-.67302.56541-1.2605 1.1417-1.6418.57626-.38132 1.2766-.52747 1.9574-.40854.68077.11896 1.2901.494 1.7029 1.0481.41301.55414.59796 1.2453.51726 1.9316l-.87233 7.952c-.0098.0877.0061.17642.04551.25537.03942.079.10107.14478.17701.1896.07594.046.16378.0687.25268.0653.08864-.003.17463-.0327.24686-.0843l17.027-11.955c.29686-.20741.635-.34816.99139-.41254.35639-.0644.72258-.05091 1.0732.0395.35454.08718.68527.25225.96811.48318.28284.23096.51065.522.66675.85198.2577.55393.31009 1.1815.1479 1.7705-.16245.58902-.5289 1.1011-1.034 1.4448l-8.0878 5.6783c-.10001.0703-.16828.17741-.18918.29787-.0212.12047.006.24437.0767.34446.0347.0496.0789.0918.12991.12428.0513.0325.10822.0546.16775.065.12065.0211.24447-.007.34448-.0768.28258-.19704.60246-.33396.94007-.40222.33761-.0683.68553-.0664 1.0224.005.33787.069.65775.20762.93901.40714.28098.1995.51752.45548.69426.75155.32068.56359.41725 1.2273.27014 1.8589-.14684.63153-.52625 1.1845-1.0628 1.5487l-1.7034 1.1903c-.0902.0737-.14922.17891-.1651.2944-.0159.11549.0127.2327.0796.32803.0672.0953.16801.16166.28205.18566.11403.024.2331.004.33284-.0563.28231-.19643.60167-.33293.93875-.40111.33681-.0682.68421-.0666 1.0205.005.33814.0696.65802.20889.93927.40888.28126.20003.51779.45641.69454.75287.31961.56336.41566 1.2264.26855 1.8572-.14685.63085-.52599 1.1832-1.0618 1.5473l-1.7034 1.1903c-.10002.0704-.16801.17753-.18918.29792-.0212.12038.006.24421.0767.34448.0704.10002.17727.16828.29792.18918.12039.0212.24421-.006.34449-.0767.29739-.20611.63579-.34581.99219-.40984.35639-.0638.72204-.0503 1.0729.0399.35348.0889.68289.25453.96494.48551.28204.23072.50985.52097.66675.85011.25823.55377.31115 1.1814.14869 1.7706-.16245.58923-.52916 1.1015-1.035 1.4446l-7.9457 5.579c-2.1071 1.465-4.5688 2.3368-7.1284 2.5246-.13388.0177-.26776.0135-.39873.0307z" fill="#861b77"/>
  <path d="m79.08 31.295c.0743-.009.14526-.0365.20638-.0796l2.1077-1.4883c.0495-.0347.0918-.0788.12409-.12991.0325-.0513.0548-.10821.0651-.16774.0106-.0598.009-.12092-.004-.17992-.0132-.0593-.0378-.11509-.0728-.16457-.0347-.0497-.0791-.0918-.13018-.12436-.0511-.0325-.10795-.0545-.16775-.0651-.0595-.0103-.12065-.009-.17991.004-.059.013-.11483.0378-.16457.0725l-2.1196 1.4899c-.0844.059-.14658.14473-.17648.24342-.0299.0984-.0259.20426.0111.30057.0373.096.10557.17674.19421.22965.0886.0526.19235.0741.29448.0609z" fill="#861b77"/>
  <path d="m77.447 25.181c.0743-.009.14525-.0362.20637-.0797l2.1196-1.4897c.0542-.0327.10107-.0761.13785-.12771.0368-.0516.0622-.11018.0754-.17211.013-.0619.0132-.12587.00026-.18786-.0127-.062-.0381-.12068-.0746-.17243-.0363-.0517-.0831-.0954-.13705-.12835-.054-.0329-.1143-.0543-.17701-.0629-.0627-.009-.12647-.004-.18733.0129-.0611.0171-.11774.0466-.16668.0867l-2.1201 1.4867c-.0844.0591-.14658.14483-.17648.24344-.0302.0986-.0262.20442.0111.30054.0373.0961.10557.17695.19421.22963.0884.0527.19208.0742.29448.061z" fill="#861b77"/>
  <path d="m75.818 19.069c.073-.0105.14261-.0376.20346-.0794l2.1196-1.4897c.0495-.0348.0918-.079.12435-.1301.0325-.0511.0545-.1081.0651-.16777.0103-.0596.009-.12075-.004-.17986-.0132-.0591-.0378-.11504-.0725-.1646-.0349-.0496-.0791-.0918-.13017-.12427-.0511-.0325-.10822-.0546-.16775-.065-.0598-.0104-.12091-.009-.17992.004-.059.0131-.11509.0378-.16457.0726l-2.1196 1.4897c-.0847.0593-.14711.14528-.17674.24418-.0299.0989-.0257.205.0119.30123.0376.0962.10636.17701.19552.22939.0892.0524.19315.0733.29554.0594z" fill="#861b77"/>
  <path d="m63.143 45.915c.29474-.0384.576-.14764.81968-.3183l2.3895-1.6769c.83846-.57811 1.8169-.92048 2.8329-.99139 2.7368-.20373 5.3676-1.1443 7.6139-2.7215l7.9457-5.579c.68157-.4699 1.1748-1.166 1.3917-1.9651s.14367-1.6489-.20691-2.399c-.21775-.44635-.53022-.83978-.91546-1.1533-.38496-.31326-.83396-.53922-1.3152-.66145-.1307-.0352-.26352-.0611-.39767-.0781.65643-.52039 1.1038-1.2592 1.261-2.0819.15716-.82267.0135-1.6744-.40455-2.4001-.24051-.40589-.56356-.75692-.948-1.0305-.38418-.27356-.8218-.46363-1.284-.55793-.086-.0166-.17171-.0333-.25664-.0438.65669-.51999 1.1046-1.2589 1.2618-2.0817.15716-.82285.0132-1.6748-.40561-2.4003-.24077-.40526-.56383-.75567-.948-1.0287-.38444-.27303-.82153-.46263-1.2835-.55666-.0799-.0174-.16219-.0314-.2413-.0428l6.1751-4.3366c.68157-.46974 1.1748-1.1659 1.3917-1.9649.21696-.79896.14367-1.649-.2069-2.399-.21881-.4449-.53129-.83727-.91572-1.1502-.38471-.31298-.83212-.53917-1.3123-.66307-.47995-.12393-.98134-.14266-1.4692-.05493-.48789.08776-.95118.2799-1.3581.5633l-16.2 11.385.76041-6.9394c.0945-.9138-.16139-1.8294-.71622-2.5618-.55457-.73234-1.3666-1.2269-2.2717-1.3836-.90514-.15674-1.8362.03596-2.6048.53914-.76862.50321-1.3176 1.2794-1.5359 2.1718l-3.9534 16.361c-.31247 1.29-1.0837 2.4222-2.1698 3.1853l-.97049.6821c-.1987.13917-.36804.31591-.49821.5207s-.21881.43312-.26062.67204c-.0418.23892-.03598.48392.01693.72046.05318.2368.1524.46091.2921.65908l9.1443 13.013c.19632.27278.46328.48683.77232.61886.30903.13202.64823.17727.98108.13044zm5.5774-3.8584c-1.0411.1307-2.0354.51091-2.898 1.1083l-2.3894 1.6769c-.09922.0706-.21167.12091-.33046.1479-.1188.027-.24183.0299-.36168.009-.12012-.0209-.23468-.0653-.33761-.13097-.10266-.0654-.19156-.15055-.26114-.25056l-9.1443-13.013c-.07011-.0995-.11959-.21167-.14605-.33047-.02672-.11853-.02937-.2413-.0082-.36115.02117-.1196.06588-.2339.1315-.33629.06535-.10239.15055-.19103.25056-.26035l.97049-.68183c1.265-.89059 2.1627-2.2113 2.5249-3.7154l3.9563-16.361c.1569-.67302.56541-1.2605 1.1417-1.6418.57626-.38132 1.2766-.52747 1.9574-.40854.68077.11896 1.2901.494 1.7029 1.0481.41301.55414.59796 1.2453.51726 1.9316l-.87233 7.952c-.0098.0877.0061.17642.04551.25537.03942.079.10107.14478.17701.1896.07594.046.16378.0687.25268.0653.08864-.003.17463-.0327.24686-.0843l17.027-11.955c.29686-.20741.635-.34816.99139-.41254.35639-.0644.72258-.05091 1.0732.0395.35454.08718.68527.25225.96811.48318.28284.23096.51065.522.66675.85198.2577.55393.31009 1.1815.1479 1.7705-.16245.58902-.5289 1.1011-1.034 1.4448l-8.0878 5.6783c-.10001.0703-.16828.17741-.18918.29787-.0212.12047.006.24437.0767.34446.0347.0496.0789.0918.12991.12428.0513.0325.10822.0546.16775.065.12065.0211.24447-.007.34448-.0768.28258-.19704.60246-.33396.94007-.40222.33761-.0683.68553-.0664 1.0224.005.33787.069.65775.20762.93901.40714.28098.1995.51752.45548.69426.75155.32068.56359.41725 1.2273.27014 1.8589-.14684.63153-.52625 1.1845-1.0628 1.5487l-1.7034 1.1903c-.0902.0737-.14922.17891-.1651.2944-.0159.11549.0127.2327.0796.32803.0672.0953.16801.16166.28205.18566.11403.024.2331.004.33284-.0563.28231-.19643.60167-.33293.93875-.40111.33681-.0682.68421-.0666 1.0205.005.33814.0696.65802.20889.93927.40888.28126.20003.51779.45641.69454.75287.31961.56336.41566 1.2264.26855 1.8572-.14685.63085-.52599 1.1832-1.0618 1.5473l-1.7034 1.1903c-.10002.0704-.16801.17753-.18918.29792-.0212.12038.006.24421.0767.34448.0704.10002.17727.16828.29792.18918.12039.0212.24421-.006.34449-.0767.29739-.20611.63579-.34581.99219-.40984.35639-.0638.72204-.0503 1.0729.0399.35348.0889.68289.25453.96494.48551.28204.23072.50985.52097.66675.85011.25823.55377.31115 1.1814.14869 1.7706-.16245.58923-.52916 1.1015-1.035 1.4446l-7.9457 5.579c-2.1071 1.465-4.5688 2.3368-7.1284 2.5246-.13388.0177-.26776.0135-.39873.0307z" fill="#24022b" opacity=".3"/>
 </g>
</svg>
